<svg id="Ebene_1" data-name="Ebene 1" xmlns="http://www.w3.org/2000/svg" viewBox="0 0 52.04 52.04"><defs><style>.cls-1{fill:#fff;}</style></defs><title>Zeichenfläche 1</title><path class="cls-1" d="M26,52A26,26,0,1,0,0,26,26,26,0,0,0,26,52ZM26,3.56A22.46,22.46,0,1,1,3.56,26,22.49,22.49,0,0,1,26,3.56Zm0,0"/><path class="cls-1" d="M22.53,37.17A1.78,1.78,0,0,0,25,34.65L18.2,27.8H38a1.78,1.78,0,1,0,0-3.56H18.2l6.85-6.84a1.79,1.79,0,0,0-1.27-3,1.75,1.75,0,0,0-1.25.53l-9.89,9.88a1.79,1.79,0,0,0,0,2.52Zm0,0"/></svg>