<svg xmlns="http://www.w3.org/2000/svg" viewBox="0 0 525.48 660.54"><defs><style>.cls-1{fill:#868686;}.cls-2{fill:#d4d3d2;}.cls-3{fill:#fff;}.cls-4{fill:#1d1d1b;}</style></defs><title>Zeichenfläche 4</title><g id="cat"><path class="cls-1" d="M290.92,470.9s-7.06,45.67-39.39,68.15-60.59,30.38-98.17,20.83-55.72-35.4-63.07-50.41,2.15-31,9.72-32.75,17.27,5.18,28.52,15.27,19,21.31,42.69,25.25,39.78-1,59.09-12.49S261.1,476,264,469.42s3.32-9.12,3.32-9.12-12.36-.94-24,3.65S216.49,480,209,483.28s-11.88.44-13.27-4.67,6.09-17.36,10.85-21.94a50.59,50.59,0,0,1,8.72-6.87s-6.94-25.72-8-35.47,6.24-32.23,18.52-40.77S243.35,365,243.35,365s10.42-20.24,11.37-21.92-2.49-22.24-9.12-30-11.37-9.78-17.45-8.28-9.83,6.83-15.31,9.71-9.12-1.92-7-9.11,11.54-26.78,25.54-30,32.41,9.47,32.41,9.47a1.87,1.87,0,0,0,1.67-1.2c.32-1.14-2-11.21-2-11.21s35.39,11.67,67.23,3.28,42.13-20.39,42.13-20.39,9.4,18.54,16.65,34.12,25.09,73.14,9.27,123.11S352.22,489.34,339.87,499s-20.6.35-24.34-3.92S294.91,472.67,290.92,470.9Z"/><path class="cls-2" d="M311.38,475.23c-4.09-3.73-13.14-7.8-18.25-4,0,1.69,1.6,2.86,3,3.86,3.72,2.72,6.62,6.38,9.64,9.87,2.05,2.37,12.58,16.36,15.9,10.41S315.16,478.68,311.38,475.23Z"/><path class="cls-2" d="M271.69,275s-28.55-5.9-52.08-33.69-17.83-58-12.84-73.37,20.22-39.34,44.94-50.78,52.52-18,79.55-11.15,66,20.29,75.28,70.91-32.68,79.58-41.67,84.28-9.46,4.71-9.46,4.71S320.33,282.1,295,278.28,271.69,275,271.69,275Z"/><path class="cls-1" d="M303.42,216a82,82,0,0,1-4.85-7.5q4.28-.45,8.58-.63a22.76,22.76,0,0,1,8.15.74c-.19-.06-5.33,7.21-5.9,7.89-.73.88-1.64,2.43-3,2.33S304.1,216.91,303.42,216Z"/><path class="cls-1" d="M242.43,246.28c10.06,6.21,23.28,12.44,34.92,14.28,10.86,1.72,24.25,2.94,34.87-.5,1.22-.4-1-4.86-2.32-4.83-11.59.27-25.24,1-36.84-.77-11.43-1.78-19.36-4.85-29.89-9.56a.78.78,0,0,0-.74,1.38Z"/><path class="cls-1" d="M315.35,258.68c28.09,1.8,61.72-16.94,69.7-43.41,7.37-24.44-3.08-60.64-28.33-70.12-1.53-.57-9,5.84-7.55,6.52,23.44,10.74,31.58,38.67,24.2,62a59.75,59.75,0,0,1-22.84,30.53c-10.84,7.64-22.64,10.59-35.37,13.29-.72.15-.48,1.22.19,1.23Z"/><path class="cls-3" d="M273.15,220.26a11.45,11.45,0,0,0,2.85,12.9c5.69,5.44,14.2,4.94,20.07.93,6.46-4.41,4.62-14.07-1.3-18.91A13.91,13.91,0,0,0,273.15,220.26Z"/><path class="cls-3" d="M318.44,230.07c7.49,4,19.61-.39,19.49-9.84a7.92,7.92,0,0,0-5.4-7.34c-4.95-1.74-13-.91-16.9,2.85C311.05,220.17,313.21,227.26,318.44,230.07Z"/><path class="cls-1" d="M249.33,201.67c-5.37,6.54,5.5,12.35,15.53,11.2,8.69-1,19.53-7.66,15.57-15.39-1-1.93-6.51,2.65-8,3.41a22.55,22.55,0,0,1-10.37,3C260.3,204,249.85,201,249.33,201.67Z"/><path class="cls-1" d="M331,200.44c-1.72,1.49.6,4.93,1.86,6.05a21.21,21.21,0,0,0,17.38,4.79c4.68-.71,11.57-3.78,14.07-7.45,2-3,3.38-7.25.24-9.39-2.23-1.51-3.29,1.8-4.27,2.88-1.74,1.94-4.79,3.23-7.23,4.37a15.68,15.68,0,0,1-3.81,1.39,13.06,13.06,0,0,1-4.37-.09,54.12,54.12,0,0,1-6.72-1.45c-1.44-.41-4.46-2.06-6.11-1.61A2.53,2.53,0,0,0,331,200.44Z"/><path class="cls-3" d="M287.3,312.82c-3.7,16.15-3.27,33.75-10.05,48.59-3.06,6.7-6.73,13-8.87,20.25a69.37,69.37,0,0,0-2.62,20,96,96,0,0,0,7.08,34.5c2,5,4.3,11.65,7.9,15.71.82.92,1.34,1.19,1.83,1.12.83-.13,1.56-1.27,3.39-2a14.36,14.36,0,0,1,8.15-.69c4.26.82,8.07,3.12,11.67,5.53q5.84,3.89,11.31,8.28c2.22-10.91-1-22.34.92-33.31A36.22,36.22,0,0,1,333.63,407a14.26,14.26,0,0,0,3.48-2.72,9.44,9.44,0,0,0,1.43-2.72.55.55,0,0,0,.77-.32l1.06.67c7.3-16,8.08-37.14,2.88-55.82a16.71,16.71,0,0,1-3.69,1.63,11.34,11.34,0,0,1-8,1.71,8.66,8.66,0,0,1-7.08-7.13c-.27-2.34.59-4.64,1.43-6.83q1.66-4.37,3.34-8.74c.85-2.22,2.81-5.39,2.59-7.77-.31-3.53-3.89-8.58-5.71-11.56-4.45-7.31-10.27-13.2-18.94-14.68C296.25,291.72,289.75,302.16,287.3,312.82Z"/><path class="cls-1" d="M303.07,251c-.12.33-.25.66-.4,1a18.66,18.66,0,0,1-5.61,7.57c-3.26,2.37-7.84,3.18-11.79,2.89A197.8,197.8,0,0,1,260.44,259c2,5.08,2.53,11.25,6.83,14.61a16,16,0,0,0,4.87,2.35c14.32,4.77,29.86,3.55,44.9,2.28,11.95-1,22.67-5,34-8.93,8-2.78,16.54-6.14,20.91-13.38a1.63,1.63,0,0,0,.28-.65,1.85,1.85,0,0,0-.63-1.36l-6.13-7a4.12,4.12,0,0,0-1.54-1.28c-1.25-.49-2.59.28-3.73,1a89.93,89.93,0,0,1-29.61,11.9c-5.72,1.18-10.24-2.14-13.51-6.54-1.71-2.29-3-5.4-5.33-7.13-1.49-1.11-3.7-1.5-5.17-.37C304.53,246,304,248.64,303.07,251Z"/><path class="cls-3" d="M327.55,177.55c-4.07,10.1,1.5,21.55,11.33,25.39,9.26,3.62,20.41-.51,25.38-9.36,5.79-10.29-.38-23-11-27.08C343.34,162.75,331.52,167.67,327.55,177.55Z"/><path class="cls-3" d="M243.86,178.84c-4.06,10.09,1.47,21.72,11.29,25.56,9.25,3.62,20.42-.7,25.39-9.54,5.78-10.29-.38-23-11-27.06C259.64,164.05,247.83,169,243.86,178.84Z"/><path class="cls-1" d="M319.66,497.82c2.28.82,3.84-.67,4.22-2.94.72-4.32-2.38-9.58-4.87-12.82-5.09-6.63-15.28-15.65-24.26-12.3a1.46,1.46,0,0,0,.85,2.79c5.59-.87,12.23,3.13,16.36,7.35,6.87,7,10.38,15.9,6.7,16-1,0,.2,1.64,1,1.93Z"/><path class="cls-3" d="M105.79,533.28a11.52,11.52,0,0,0,6.71.31,10.59,10.59,0,0,0,6.81-4.77,28.6,28.6,0,0,0,2.89-6.46q1.67-4.85,3.11-9.75l2,6.52c6.22-10,4.92-28.36-4.66-35.94-5.07-4-15.8-5.85-22.1-5.21a12.29,12.29,0,0,0-7,2.66,11.55,11.55,0,0,0-2,2.34c-4.21,6.38-4.45,15.24-2.75,22.51,1.56,6.69,5.24,12.66,8.87,18.5C100.34,528.28,102.29,531.86,105.79,533.28Z"/><path class="cls-4" d="M258.44,179.28a3.63,3.63,0,1,0-2.42,4.53,3.67,3.67,0,0,0,2.42-4.53Z"/><path class="cls-4" d="M343.49,176.75a3.64,3.64,0,1,0-2.42,4.53,3.69,3.69,0,0,0,2.42-4.53Z"/><path class="cls-1" d="M254.92,132.61a205.66,205.66,0,0,0-9,21.9c6.45.63,10.39.54,16.71,2.72,5.49,1.9,14.65,7.56,18.41,12,11.78,13.9,15.25,32,17.59,39.61.31,1,2,.79,1.86-.31l0-.26c3.86.91,15,1.62,15,.83C317.07,189,320,168.73,340,158c8.49-4.55,15.76-7.05,25.4-7.44-5.86-12.67-12.21-25.94-23.67-33.92.38.27-4.84,8.82-7.7,16.61-2.11,5.76-1.86,11.26-2.64,11.88-2.26,1.79-3.37-1.72-6.22-2.67-4.27-1.43-11-1.79-15.5-1.79-9.77,0-18.16,3.67-27.52,5.27-1.81.3-1.89.56-2.44.08-.25-.21-.59-.56-1.22-1.12-2.16-1.89-.72-5.9-2.16-8.35-.74-1.27-10.43-15.21-10.2-15.25C260.65,122.19,257.31,127.63,254.92,132.61Zm89.86,1.58a.54.54,0,0,1,.87-.27,17.79,17.79,0,0,1,6,11.86.57.57,0,0,1-.54.58,34.4,34.4,0,0,1-7.3-1.55.72.72,0,0,1-.46-.12l-.16-.05a.11.11,0,0,1,0-.2.61.61,0,0,1,0-.24A49.86,49.86,0,0,1,344.78,134.19Zm-81.7,2.67A62.48,62.48,0,0,1,264.83,148a.57.57,0,0,1-.7.57c-1.93-.34-3.9,0-5.86.1-.08.06-.15.14-.23.19a.53.53,0,0,1-.72-.19h-.23a.21.21,0,0,1,0-.42l.2,0c.15-1.44,1.42-3.19,2-4.47,1-2.25,1.9-4.52,2.65-6.84C262.08,136.36,262.92,136.22,263.08,136.86Z"/><path class="cls-4" d="M297,210.49a39.23,39.23,0,0,0,8.29,11.07,2.13,2.13,0,0,0,2.93-.12c2.92-2.55,6.59-7.59,9.1-12.05.6-1.06-.33-2.27-1.78-2.58a36.05,36.05,0,0,0-17.42.67A2.05,2.05,0,0,0,297,210.49Zm16-.62s-5,6.45-6.62,8a70.22,70.22,0,0,1-5.91-7.73A48.64,48.64,0,0,1,313,209.87Z"/><path class="cls-1" d="M312.23,200.46a8.08,8.08,0,0,0-2.51-.69,18.84,18.84,0,0,0-4.62.23,15.1,15.1,0,0,0-2.69.55,14.92,14.92,0,0,0-3,1.54A13,13,0,0,0,305,203a79.66,79.66,0,0,0,8.88-1.4A5.56,5.56,0,0,0,312.23,200.46Z"/><path class="cls-1" d="M312.58,195.22a15.72,15.72,0,0,0-1.48-1.49,8.25,8.25,0,0,0-2.53-1.1,13.54,13.54,0,0,0-7.78,1,11.47,11.47,0,0,1-2.79,1.51c1.33.86,3.21,2,4.85,1.87s3-.75,4.5-1a42.27,42.27,0,0,1,6-.13A4.43,4.43,0,0,1,312.58,195.22Z"/><path class="cls-1" d="M312.61,187.44a14.07,14.07,0,0,0-1.72-1.74,7.45,7.45,0,0,0-4.3-1,21.63,21.63,0,0,0-10,3.6c.92,0,1.65.8,2.54,1a4.4,4.4,0,0,0,1.2.11c4.59,0,8.89-1.38,13.55-.87C313.66,188.54,313.15,188,312.61,187.44Z"/><path class="cls-1" d="M313.68,179a6.31,6.31,0,0,0-1.35-1.33c-2.78-2.1-5.29-1.63-8.53-1.26a24.9,24.9,0,0,0-5.63,1,19.25,19.25,0,0,0-2.89,1.4c-.41.24-2.08,1.65-2.49,1.57l4.23.86a13.49,13.49,0,0,0,2,.31c2.4.14,4.72-.67,7.09-.88a40.1,40.1,0,0,1,7.9,0c.11,0,.25,0,.31-.09a.33.33,0,0,0,0-.17A3.55,3.55,0,0,0,313.68,179Z"/><path class="cls-1" d="M317.49,171.15c-4.17-6.73-14-4.07-20.37-2.47a26.06,26.06,0,0,0-3.66,1.19c-.42.17-2.92,1.7-3.18,1.57a18.08,18.08,0,0,0,7.55,1.75c2.3,0,4.67-.81,7-1.1,4.43-.55,9-.74,13.3.66.11-.1.06-.29,0-.43A9.25,9.25,0,0,0,317.49,171.15Z"/><path class="cls-1" d="M320.9,161.43q.62-.19,1.23-.45c-.56.23-3.81-1.47-4.57-1.68-1.56-.42-3.18-.6-4.71-1.08a22.49,22.49,0,0,0-8.94-.86,53.06,53.06,0,0,0-6.09,1.29c-2.34.49-4.64.75-6.83,1.83a26.33,26.33,0,0,0-2.7,1.61l-2.49,1.63c6.57,1.76,12.92-.89,19.53-1.07C310.53,162.51,315.88,163.05,320.9,161.43Z"/><path class="cls-1" d="M324.39,154.43a14.32,14.32,0,0,0,2.62-.71c-.31.1-4.37-3.07-5-3.4a30.26,30.26,0,0,0-19.07-3.07c-6.64,1.2-13,2.8-18.74,6.36a15.61,15.61,0,0,0,4.1.42,32.22,32.22,0,0,0,7.55-.34,57.3,57.3,0,0,1,7.74-1,60.73,60.73,0,0,1,17.32,1.4,12.87,12.87,0,0,0,2.75.41A4.62,4.62,0,0,0,324.39,154.43Z"/><path class="cls-4" d="M221.58,298.65a14.27,14.27,0,0,0-.84-2.29,8.62,8.62,0,0,0-4.45-4.52,6.54,6.54,0,0,0-3.74-.28c-1.28.29-3.3,1.44-2.59,3.09.82,1.9,2.21,2.86,3.93,3.93,1.45.89,3,1.63,4.5,2.42,1.08.57,2.71,1.94,4,1.63A33.46,33.46,0,0,0,221.58,298.65Z"/><path class="cls-4" d="M234.38,292.57a5.83,5.83,0,0,0,0-1.11,19.23,19.23,0,0,0-1.29-5.85c-1.46-3.62-4.23-7.46-8.23-8.41-2.23-.53-3.64,1.5-3.29,3.49.49,2.73,2.49,4.93,4,7.12a41.7,41.7,0,0,1,2.93,4.72,26.14,26.14,0,0,1,1.62,5.09c.15.5.53,1.09,1,.95a1.09,1.09,0,0,0,.56-.52C232.91,296.3,234.17,294.71,234.38,292.57Z"/><path class="cls-4" d="M250,298a13.8,13.8,0,0,0,1.68-5.31,26.93,26.93,0,0,0-1.13-8.41c-.83-3.26-2.09-6.91-4.79-9.11-1.17-1-3.07-1.93-4.65-1.63-1.36.26-2.09,1.71-3.41,2.2,1.47,3.5,3.66,6.66,5,10.22.92,2.38,1.8,4.77,2.68,7.16a57.75,57.75,0,0,1,1.89,6.92,1.73,1.73,0,0,0,.33.79.69.69,0,0,0,.77.23,1,1,0,0,0,.45-.61C249.17,299.62,249.57,298.82,250,298Z"/><path class="cls-4" d="M221.26,424.81c-2.59-3.75-9.6-3.46-13.45-2.59a.5.5,0,0,0-.29.14.52.52,0,0,0-.11.3,10.67,10.67,0,0,0,.16,3.52.79.79,0,0,0,.32.58.88.88,0,0,0,.6,0c1.68-.41,4,.34,5.76.45a37.17,37.17,0,0,0,7.9-.21A5.44,5.44,0,0,0,221.26,424.81Z"/><path class="cls-4" d="M232.34,417.43c-2.27-3.49-6.65-4.14-10.91-5.24a40,40,0,0,0-15.05-.93,21.26,21.26,0,0,0,.16,6.8c5.19-.36,10.51.69,15.63,1.48,3.74.57,7.49.16,11,1.23.13,0,.31.06.38-.06a.3.3,0,0,0,0-.23A9.32,9.32,0,0,0,232.34,417.43Z"/><path class="cls-4" d="M242.68,405.59c-3.54-4.63-8.7-6.74-14.65-8.13-6.4-1.49-12-1.37-18.05,1.28a32.44,32.44,0,0,0-1,6.42,81.71,81.71,0,0,1,14.41-.82c4.5.15,8.59,1.43,12.94,2.47,2.54.61,4.58,2.33,7.33,1.9.28,0,.61-.16.65-.44a.63.63,0,0,0-.13-.43A19.35,19.35,0,0,0,242.68,405.59Z"/><path class="cls-4" d="M247.17,390.16a18.09,18.09,0,0,0-3.33-4,26.87,26.87,0,0,0-7.19-3.43c-4-1.43-8.8-2.59-12.9-1.09-1.75.64-3,2.14-4.39,3.33-.87.74-3.21,4.44-4,4.62,10.3-2.3,20.82,3.12,31.37,2.73a1.32,1.32,0,0,0,.48-.09C247.86,391.92,247.69,391.1,247.17,390.16Z"/><path class="cls-4" d="M338,437.57a24.37,24.37,0,0,0-8.24-4.05c-2.46-.71-5.9-2.07-8.29-.49-1.15.76-3,7.57-2.06,7.69,7.07.85,14.89,2,21.88.72a.52.52,0,0,0-.09-.59A15.78,15.78,0,0,0,338,437.57Z"/><path class="cls-4" d="M325.77,417.76c-1.49.95-1.61,4.18-1.09,5.74s2.05,2.17,3.54,2.71c5.91,2.13,11.34,5.24,17.23,7.36a13.22,13.22,0,0,0-2.31-7.22c-2.14-3.22-5.09-4.92-8.18-7C332.4,417.61,328.71,415.87,325.77,417.76Z"/><path class="cls-4" d="M354.82,422.28a5.7,5.7,0,0,0,.39-1.21c.73-3.95-2.39-8.36-4.65-11.24-1.7-2.15-3.41-4.74-5.92-6-3.11-1.59-6.83.2-9.34,2.21,3.69,3.54,7.33,7.2,10.7,11.05,1.24,1.41,2.54,2.87,3.67,4.37s1.67,3.48,2.59,5.21c.66-.91,1.2-1.95,1.78-2.92C354.31,423.26,354.59,422.78,354.82,422.28Z"/><path class="cls-4" d="M353.39,465.47a18.33,18.33,0,0,0,4.66,5.79,42.7,42.7,0,0,1,3.52,2.52,8.19,8.19,0,0,0,4.13,2.44,2.94,2.94,0,0,0,3.48-3.06c-.09-1.84-2.39-4.46-3.71-5.57a19.84,19.84,0,0,0-3.55-2.24c-2-1.08-4-2.26-6-3.26-1-.49-3.15-1.82-4.27-1.49A16.81,16.81,0,0,0,353.39,465.47Z"/><path class="cls-4" d="M355.36,441.35a54.82,54.82,0,0,0,4.75,6.53,85.93,85.93,0,0,0,8.07,9.09c2,1.89,6.06,7.78,9.07,5.75,2.41-1.62,5.54-5.1,2.68-7.79a132.39,132.39,0,0,0-12.36-10.7c-3.18-2.32-9.49-7.36-13.67-6.11A16.69,16.69,0,0,0,355.36,441.35Z"/><path class="cls-4" d="M369.54,433.11a110.09,110.09,0,0,0,13.65,15.52c.73.68,2.9-2.31,3.16-2.79a21.82,21.82,0,0,0,1.89-5.91.53.53,0,0,0,0-.25.45.45,0,0,0-.21-.22,89.71,89.71,0,0,0-10.8-6.44c-.91-.47-9-5.44-9.35-2.67C367.8,431.12,369.12,432.53,369.54,433.11Z"/><path class="cls-4" d="M376.54,409.24a2.76,2.76,0,0,0,.25.44c1.82,2.78,5.43,4,8.14,5.63s5.9,3.89,9.33,4c1.33,0,2.24-.16,2.85-1.39a28.17,28.17,0,0,0,.63-4.81c-3.95-.67-8.18-2.88-11.85-4.46a79.05,79.05,0,0,1-10.55-5.8,17,17,0,0,0,.93,5.73Q376.39,408.9,376.54,409.24Z"/><path class="cls-4" d="M377.13,391.15a9.43,9.43,0,0,0,1.64,1.7,23.89,23.89,0,0,0,6.55,3.41l13.61,5.36a1.58,1.58,0,0,0,1.06.15c.54-.17.73-.83.83-1.4.49-2.7,4.37-8.28-.86-9.09-4.66-.73-9.54-1.22-14.09-2.45-3-.81-7.17-3.06-10.31-2.36A7.13,7.13,0,0,0,377.13,391.15Z"/><path class="cls-4" d="M375,371.39a10.32,10.32,0,0,0,4.16,3.66,26.91,26.91,0,0,0,8.29,2.11l12.39,1.78a4.5,4.5,0,0,0,1.79,0c1.67-.43,1.7-2,2.33-3.24.53-1.08,1.36-1.87,1.49-3.13a3.53,3.53,0,0,0-3.71-4.05c-8.91.41-17.95.53-26.75-.74-.35-.05-.78-.06-1,.24a.85.85,0,0,0-.06.59A7,7,0,0,0,375,371.39Z"/><path class="cls-4" d="M381.69,359.52a28.62,28.62,0,0,0,9.31,2.4,57.66,57.66,0,0,0,7.2,0l6.52-.29a1.1,1.1,0,0,0,.8-.25,1.17,1.17,0,0,0,.21-.78c0-2.44,1.95-8-2.71-7.41-4.51.57-9.2,1.24-13.73,1.43-1.09.05-11.78.44-11.56,1.33.4,1.64,2,2.67,3.55,3.39Z"/><path class="cls-4" d="M372.73,339.85a15.91,15.91,0,0,0,4.52.69c8.12.48,16.35.94,24.32-.68a1.52,1.52,0,0,0,.84-.35,1.46,1.46,0,0,0,.35-.81c.54-2.54,1.42-10.11-2.79-9.83-4.6.3-9,2.49-13.37,3.94a118.54,118.54,0,0,1-17.6,4.1,7.32,7.32,0,0,0,3.25,2.75Z"/><path class="cls-4" d="M348.53,327.15c-2.55-4.09-7.36-6.95-11.74-8.4s-4.1,4.7-5.07,7c1.72.76,3.49,1.43,5.27,2a67.29,67.29,0,0,0,11.46,2.73,2,2,0,0,0,1.49-.18A12.31,12.31,0,0,0,348.53,327.15Z"/><path class="cls-4" d="M360.86,321.1c-.36-.46-.73-.91-1.05-1.38a25.22,25.22,0,0,0-5.14-5.38,52.63,52.63,0,0,0-8.29-5.32c-3.62-1.9-6.62,5-6.64,5q9.15,4.82,17.93,10.29a5.7,5.7,0,0,0,5.1.34A8.27,8.27,0,0,0,360.86,321.1Z"/><path class="cls-4" d="M368.53,312.13a20.34,20.34,0,0,0-8.18-9.22c-1.58-.92-3.33-2.08-5-1.15s-3.6,2.37-5.38,3.44l6.38,2.92a14.51,14.51,0,0,1,2.86,1.59,69.82,69.82,0,0,0,9.72,6.42.8.8,0,0,0,.47.13c.43-.07.42-.7.29-1.12A25.14,25.14,0,0,0,368.53,312.13Z"/><path class="cls-4" d="M384.19,315.44c4.54.36,9.11-1.07,13.48-2.48a1.31,1.31,0,0,0,.66-.37,1.35,1.35,0,0,0,.17-.66c.13-2.4.27-9.16-4.27-6.74-1.47.79-14.24,9.42-15.19,8.39a6.21,6.21,0,0,0,3.6,1.66A13.69,13.69,0,0,0,384.19,315.44Z"/><path class="cls-4" d="M382.15,273.27a109,109,0,0,0-25,17.28c4.65,2.39,10.15-.27,14.47-2.15a63.77,63.77,0,0,0,12.87-7.51,3.64,3.64,0,0,0-1.13-6.33c-.16-.33-.31-.66-.47-1-.07-.16-.17-.34-.34-.38A.57.57,0,0,0,382.15,273.27Z"/><path class="cls-4" d="M378.31,267.62a3,3,0,0,0-3.79-4.56c-3.62,1.93-6.6,5.13-9.87,7.61-2,1.49-4.76,2.53-6.32,4.39a10,10,0,0,0-2.25,7.22c0,.35,6.71-3,7.25-3.41C368.49,275.12,374.17,272.65,378.31,267.62Z"/><path class="cls-4" d="M231.55,530.1a89.92,89.92,0,0,0,2.27,20.48.56.56,0,0,0,.21.38.53.53,0,0,0,.41,0c4.64-1.31,9.11-2,7.4-8.1a21.15,21.15,0,0,0-4.11-7.64,21.42,21.42,0,0,0-3.11-3.06A35.43,35.43,0,0,1,231.55,530.1Z"/><path class="cls-4" d="M215.87,532.77q-3,13.26-4.75,26.75L218.5,558c4.62-1,4.84-7.21,4.76-10.93a19,19,0,0,0-2-7.06,19.87,19.87,0,0,0-2.37-4.06C218.56,535.52,215.82,533,215.87,532.77Z"/><path class="cls-4" d="M197,537.24c-4.26,8.15-1.6,18.41-7.24,25.68a20.91,20.91,0,0,0,2.22.24c2.57.24,7.07,1.21,9-1a7.9,7.9,0,0,0,1.49-4.07A28.32,28.32,0,0,0,197,537.24Z"/><path class="cls-4" d="M178.83,537.66c-2.53,1.4-3.94,4.16-5.05,6.83a20.85,20.85,0,0,1-4.69,7.57c-2.15,2.14-3.29,5.8-4.28,8.63-.89,2.52,1.59,4.41,3.93,4.21a60.79,60.79,0,0,1,8.48-.39c-.51-1.69,0-3.5.49-5.2C179.69,552.26,180.89,544.69,178.83,537.66Z"/><path class="cls-4" d="M159.52,536.23c-4.38,4-6.3,10-10.3,14.32a39.11,39.11,0,0,1-6.93,5.54c.62-.42,5,2.93,5.58,3.41,1.44,1.16,2.74,1.89,4.49.31,3.23-2.92,6.15-6,7.27-10.32A25.38,25.38,0,0,0,159.52,536.23Z"/><path class="cls-4" d="M140.37,539A24.32,24.32,0,0,0,144,531.6c.14-.51,1-6.81-.3-6.37-5.36,1.87-9.4,6.22-13.9,9.69a97.51,97.51,0,0,1-12.95,8c2.46,3.06,6.28,7.35,10.81,6.42C133.22,548.19,137.46,543.48,140.37,539Z"/><path class="cls-4" d="M242.88,521.15a88.42,88.42,0,0,0,5,21,5,5,0,0,1,3.31-.93c1,.05,1.75.37,2.79,0a3,3,0,0,0,1.87-4.16,71,71,0,0,0-7.3-11.73C247.16,523.27,245.31,521.17,242.88,521.15Z"/><path class="cls-4" d="M255.29,513.19s-.06,0-.06,0c.7,4.16,2.49,8.28,4,12.2.6,1.56.59,2.82,2.2,2.78a10.91,10.91,0,0,0,2.3-.77c1.64-.66,2.86-1.92,2.35-3.83-.73-2.77-2.05-5.81-4.26-7.68a13.54,13.54,0,0,0-3.18-2.06A21.8,21.8,0,0,0,255.29,513.19Z"/><path class="cls-4" d="M265.51,498.07c-.55,2,.5,4,1.45,5.78s3.51,10.23,5.19,10.5c.81.13,3.2-1.26,3.78-1.75a2.9,2.9,0,0,0,.86-3.56C274.32,504,271.4,499.33,265.51,498.07Z"/><path class="cls-4" d="M274.52,486.65a10.25,10.25,0,0,0,1,2.7q2.45,5,4.9,10c1.4,2.86,7.3-1,5.25-4.5-1.33-2.25-2.47-4.46-4.66-6C280.52,488.49,274.7,486.29,274.52,486.65Z"/><path class="cls-4" d="M265,118.18c-10.58,7.92-18.56,19.89-20.63,33C227,162,217.72,182.54,218.34,203.76c.73,24.73,17,46.54,39.74,55.21,44.41,17,115.21,5.8,130.49-46.43A59.29,59.29,0,0,0,387,175.73c-4-11-11.07-22.93-21.71-28.5-3.15-12.63-10.3-24.4-21.49-31.42a2.09,2.09,0,0,0-2.67.11,53.08,53.08,0,0,0-13.32,24.24c-10.55-2.51-15.69-3.24-24.37-2.68A108.51,108.51,0,0,0,281,142.42c-3.15-7.74-10.27-20.07-13.6-24A1.94,1.94,0,0,0,265,118.18Zm13.33,28.94c.58,1.56,2.77.49,3.71.19,2.37-.75,4.83-1.28,7.23-1.89a76.14,76.14,0,0,1,13.59-2.14c9.28-.61,18,1.06,27,2.81a2.09,2.09,0,0,0,.51.09h.05a.74.74,0,0,0,.21,0h.1a1.79,1.79,0,0,0,.23,0c.7-.08,1.36-.39,1.46-1,1.75-10.19,7.41-21,10.39-25.28a54.61,54.61,0,0,1,17.88,28.87,1.84,1.84,0,0,0,.75,1.13c6.66,4.82,15.32,14.38,19.66,24.78a53.79,53.79,0,0,1,3.58,30.68c-3.93,21.93-21.15,39-41.16,47.12-39.64,16-108.71,11.59-119.06-39.82a59.3,59.3,0,0,1,3.92-34.61c7-15.73,20.26-24.51,20.39-25.4a45.86,45.86,0,0,1,16.57-29C269.3,129.15,275.84,140.36,278.37,147.12Z"/><path class="cls-4" d="M261.74,134.4a42,42,0,0,0-6.81,14.48,1.23,1.23,0,0,0,1.21,1.5,49.92,49.92,0,0,0,8.31-.68l.93-.28c.86-.27-1.07-10-1.58-14.25C263.69,134.28,262.42,133.47,261.74,134.4Zm.07,4.16c.35,3.05.7,6.11,1.27,9.12-1.79.06-3.58.2-5.37.25A39.1,39.1,0,0,1,261.81,138.56Z"/><path class="cls-4" d="M343.38,131.31A134,134,0,0,0,341.25,146c.41,1.51,8.07,1.85,10.9,1.6a1.23,1.23,0,0,0,1.13-1.57,45.52,45.52,0,0,0-7.71-15.34C344.83,129.67,343.62,130.15,343.38,131.31Zm.55,13.56c.53-3.44,1.23-6.76,1.53-10.24a44.23,44.23,0,0,1,5,10.52C348.42,145.16,346,144.9,343.93,144.87Z"/><path class="cls-4" d="M367.62,179.26a19.33,19.33,0,0,1-1.56,15.24c-5.49,9.74-17.75,14.26-27.93,10.28a22.18,22.18,0,0,1-13-14.15,20.58,20.58,0,0,1,.55-13.81c4.33-10.76,17.27-16.33,28.26-12.16a22.87,22.87,0,0,1,13.69,14.6Zm-38.91,10.17a18.17,18.17,0,0,0,11.52,11.79,18.79,18.79,0,0,0,21.83-8.08,15.49,15.49,0,0,0,1.44-12.59,18.79,18.79,0,0,0-12.42-12.4c-9.14-2.74-19.32,2.4-22.24,11.23A16.58,16.58,0,0,0,328.71,189.43Z"/><path class="cls-4" d="M283.91,180.54a19.28,19.28,0,0,1-1.56,15.24c-5.54,9.85-17.82,14.46-28,10.49a22.19,22.19,0,0,1-13-14.2,20.73,20.73,0,0,1,.54-14c4.33-10.77,17.27-16.33,28.25-12.16a22.82,22.82,0,0,1,13.69,14.6ZM245,190.71a18.18,18.18,0,0,0,11.51,11.79,18.79,18.79,0,0,0,21.83-8.08,15.49,15.49,0,0,0,1.44-12.59,18.77,18.77,0,0,0-12.42-12.4c-9.13-2.74-19.31,2.4-22.23,11.23A16.51,16.51,0,0,0,245,190.71Z"/><path class="cls-4" d="M251.52,235.33c-6.21,3.75-13.2,5.83-20,8.15a1,1,0,0,0,.31,1.92c7.91-.35,14.55-3.74,20.92-8.15a1.14,1.14,0,0,0-1.21-1.92Z"/><path class="cls-4" d="M249.78,229.14c-9.95.3-21,1.31-30.53,4.5a1.09,1.09,0,0,0,.34,2.12c10,.15,20.87-2.27,30.45-5a.83.83,0,0,0-.26-1.61Z"/><path class="cls-4" d="M248.3,223.06c-9.23-2.42-19.54-2.6-28.66.4a1.1,1.1,0,0,0,.35,2.15c9.43-.4,18.66-1,28.11-.64,1.13,0,1.24-1.64.2-1.91Z"/><path class="cls-4" d="M245.76,216.09c-6.83-3.26-15.63-5.67-23.2-4a1.1,1.1,0,0,0,.07,2.11c7.45,1.13,15,2.86,22.43,3.74,1,.12,1.82-1.33.7-1.86Z"/><path class="cls-4" d="M360.85,230.36c6,1.1,12,3.38,18.07,3.93,1.05.1,1.12-1.34.43-1.79-5.21-3.42-12.27-3.91-18.32-3.87a.88.88,0,0,0-.18,1.73Z"/><path class="cls-4" d="M359.61,224.2c10.55,1.61,26.67.93,31.87.1,1.07-.17,1.43-1.73.21-2-5.23-1.25-27-.74-32.36.19-1.07.19-.62,1.64.28,1.73Z"/><path class="cls-4" d="M361,217.27c6.35-1.05,29.95-4.19,35.14-5.67,1.47-.42.92-2.33-.4-2.46-11.29-1.12-24.71,2.76-35.21,6.57a.82.82,0,0,0,.47,1.56Z"/><path class="cls-4" d="M365.42,209.76c5.15-1.28,24.13-9.41,28.15-12.06a1,1,0,0,0-.82-1.79c-5.18,1.11-24.08,9.51-28.09,12.2a.92.92,0,0,0,.76,1.65Z"/><path class="cls-4" d="M309.5,235c0-4.69-.77-10.52-1.19-15.61-.18-2.13-3.46-2.07-3.35.09.27,5.2.89,10.65,1.28,15.49.08.95,2.16.6,2.21-.22Z"/><path class="cls-4" d="M320.88,235c.35,1.58.61,2.86-.58,4.17a4.3,4.3,0,0,1-3.76,1.32c-3.26-.57-6.35-4.42-7.22-9.9-.14-.84-2.37,1-2.35,1.87.11,5.44,5.13,12.1,11.16,11.13,4.17-.68,7.57-5.93,4-9.39a.78.78,0,0,0-1.27.8Z"/><path class="cls-4" d="M293.47,237.31c.58,4.69,3.75,9,8.88,6.4,4.17-2.12,7.15-8.06,5.95-12.67-.25-1-2.46-1.79-2.45-.92.06,3.8-.68,6.42-2.62,8.84a7.22,7.22,0,0,1-3.23,2.53c-2.87.83-4.5-2.14-5.22-4.39-.22-.7-1.41-.57-1.31.21Z"/><path class="cls-4" d="M288.71,228.25a1.72,1.72,0,0,0-3.29,1,1.72,1.72,0,0,0,3.29-1Z"/><path class="cls-4" d="M293.45,223.68a1.83,1.83,0,0,0-3.5,1.06c.69,2.25,4.19,1.19,3.5-1.06Z"/><path class="cls-4" d="M285.67,222.87a2.37,2.37,0,0,0,1-1.36,1.43,1.43,0,0,0-1-1.69,2,2,0,0,0-1.31,0,1.67,1.67,0,0,0-1,2.3,1.66,1.66,0,0,0,2.41.72Z"/><path class="cls-4" d="M322.59,223.1a1.9,1.9,0,0,0-3.64,1.11c.71,2.34,4.36,1.24,3.64-1.11Z"/><path class="cls-4" d="M330.57,221.87c-.75-2.44-4.54-1.29-3.8,1.16s4.54,1.29,3.8-1.16Z"/><path class="cls-4" d="M324.88,216.11a1.77,1.77,0,0,0-3.39,1,1.77,1.77,0,0,0,3.39-1Z"/><path class="cls-4" d="M256.07,254.67c2.16,8.14,4.63,16.7,6.2,26.45-7.62-7.39-18.59-11-28.65-9.14a40.54,40.54,0,0,0-28.11,20.64c-4.74,8.68-8.28,21.76-.64,26.65,5,3.2,11.15-1.09,15.2-4.37,3-2.42,5.75-5.66,9.64-6.48,5.51-1.16,9.94,3,12.71,7.26s10.45,17.75,8.31,25c-2.33,7.94-6.72,15.48-11.14,23.41-13.22,4.9-25.41,13.81-31.44,26.06-4.75,9.65-11.09,32,3.95,56.46-8.84,6.24-19.06,16.65-21.88,28.23-1,4.25-.94,11.1,2.5,14.59,3.11,3.15,10,3.31,13.63,1.77,6.21-2.61,12.29-7.4,17.85-11.11,5.76-3.84,13.58-8.44,20.09-10.81a94.23,94.23,0,0,1,21.13-5c6.82-.72,12.6.3,19.4,0,1.29-.06-.44-4.38-1.6-4.76-9-2.87-19.68-1.77-28.79-.18A86.63,86.63,0,0,0,226,469.67c-4.7,2.73-8.95,6.09-13.5,9.05a36.74,36.74,0,0,1-8.21,4.3c-4.86,1.61-7-2.18-6.11-6.48,2.26-10.42,10.15-19.57,18.9-25.21,1.35-.87,1.14-2.9.27-4.42-12.29-29.28-6.53-44.69-2.36-53.39,7.5-15.64,22.84-24.48,39-28.72,2.33-.62,1.77-4.67-.7-4.29-2,.31-4,.72-6,1.22,2.43-3.75,4.59-7.78,6.58-11.54,2.72-5.13,4.14-10,2.78-15.74-2.63-11.15-7.75-28.21-20.27-31.83-5.81-1.67-10.8.67-15.23,4.39-3.16,2.64-13.85,11.29-14.08,2-.21-8.35,7-18.8,13-24.1,6.3-5.59,15.69-8.88,24.06-7.06,7.36,1.59,14.13,6.31,20.46,10.16,1.43.87,2.12.37,2.26-.66,1-6.92-1.39-24.46-7-32.95C259.28,253.5,255.77,253.53,256.07,254.67Z"/><path class="cls-4" d="M376.28,326.48c-8-2-17.51,1.78-24.27,6a49.33,49.33,0,0,0-10.23,8.61c-3.77,4.08-11.8,10.67-12.84.8a22,22,0,0,1,.85-5,50.13,50.13,0,0,1,15.35-25.41,53.59,53.59,0,0,1,15-9.28c5.11-2.09,10.48-2.46,15.72-3.95a1.29,1.29,0,0,0-.07-2.48c-11.38-1.81-26.15,3.8-34.5,11.06-9,7.84-17.46,20.36-18.78,34-.43,4.4.51,11.46,5,13.47,4.21,1.87,9.67-.38,12.9-3.21,5.09-4.45,10.33-11.1,16.41-14.5a92,92,0,0,1,19.48-8.14A1,1,0,0,0,376.28,326.48Z"/><path class="cls-4" d="M362,245.38c21.57,31.09,37.74,66.56,40.23,104.79,2.28,34.83-5.66,71.07-23.48,101.17C369.67,466.65,344.15,497,333,500.25c-5.79,1.71-10.46-1-14.15-5.36-5.88-7-11.34-13.63-18.19-19.76-3.45-3.08-7.09-6.05-10.26-9.42-1.67-1.78-3.92-4.42-4-7-.16-3.28,2.87-5.36,5.82-5.68,9.54-1,18.14,8.9,24.71,14.34a2.08,2.08,0,0,0,2.88-.61c.62-1.26.41-3.84.53-5.27.3-3.73.42-7.48.58-11.23.3-7.41.67-14.93,2.76-22.09A38.61,38.61,0,0,1,330.33,415a25.87,25.87,0,0,1,19.79-10.27c8.41-.19,15.85,7.08,20.5,13,.71.9,2.27-.13,1.9-1.19-3-8.43-10.93-17.07-20-18.48-8.19-1.27-16,.26-22.15,5.67-14.94,13-17,32.51-14.32,55.79-6-7.55-19.39-15.07-28.3-13.31-4.29.85-8.11,3.9-8.84,8.38-.86,5.34,2,10.28,5.51,13.78,5.28,5.2,14.82,14.92,20.11,20.12,4.68,4.61,7.8,9.37,12.5,13.91,8.71,8.43,16.29,6.72,25,1s21.57-19.86,27.67-27.65c14-17.93,27.24-42.17,33.38-63.67,10.58-37.1,9.13-71.4-3.3-107.88-7.17-21-20-44.33-32.49-61.79C365.39,239.74,360.07,242.63,362,245.38Z"/><path class="cls-3" d="M405.52,166.45a77.34,77.34,0,0,1,3.09,16.24c1.93,23.8-7.07,47-25.33,65.43s-43.43,29.66-71.07,31.9-54.36-4.87-75.28-20-33.61-36.69-35.54-60.49h0c-4-49,39.27-92.69,96.4-97.33C348.39,98.07,393.19,126,405.52,166.45ZM207.38,215c5,16.57,15.81,31.32,31.31,42.55C259,272.3,285.05,279.22,312,277s51.49-13.2,69.19-31,26.32-40.16,24.46-63.07c-3.85-47.38-52.11-82.27-107.59-77.77s-97.49,46.71-93.65,94.1h0A75,75,0,0,0,207.38,215Z"/><path class="cls-3" d="M406.79,166.14a78.09,78.09,0,0,1,3.13,16.44c1.95,24.1-7.15,47.63-25.64,66.26s-44,30-72,32.31-55.06-4.94-76.24-20.29-34-37.15-36-61.25h0c-4-49.66,39.76-93.87,97.61-98.57C348.94,96.89,394.31,125.12,406.79,166.14ZM206.14,215.31c5.11,16.78,16,31.72,31.71,43.09,20.6,14.93,47,21.93,74.21,19.72s52.14-13.37,70.06-31.42,26.65-40.67,24.77-63.87c-3.89-48-52.77-83.32-108.95-78.76s-98.72,47.31-94.83,95.29h0A75.56,75.56,0,0,0,206.14,215.31Z"/><path class="cls-1" d="M265.62,199.28c4.76.3,8.77-2.74,10.8-6.92,1.8-3.71,2.87-10.29-.49-13.42a1.28,1.28,0,0,0-2.12,1c-.15,1.6.41,3.09.53,4.68a13.52,13.52,0,0,1-.87,5.91,13.36,13.36,0,0,1-8,7.65.59.59,0,0,0,.19,1.14Z"/><path class="cls-1" d="M350.46,199.18c9.61-1.48,16.41-15.67,9-23.29a1.2,1.2,0,0,0-2,.9c.39,4.1,1.39,7.6-.14,11.67-1.39,3.72-4.34,6.42-7.43,8.77-.72.55-.54,2.12.6,2Z"/><path class="cls-3" d="M343.38,381.64a3.64,3.64,0,0,0-1.11-.29c-2.93-.27-3.13,4.43-1,5.64l2.59,1.46a23.79,23.79,0,0,0,4.38,2.46c2.93,1.24,5.34,3.49,8.06,5.1a16.54,16.54,0,0,0-1.52-7.13,6,6,0,0,0-1.44-2.09,7.37,7.37,0,0,0-1.52-.93l-7.54-3.79A8.36,8.36,0,0,0,343.38,381.64Z"/><path class="cls-3" d="M353.42,377.19a12.67,12.67,0,0,0-4,1.44c1.95,2.1,4.82,3.16,7.28,4.56a82.63,82.63,0,0,0,7.77,3.58c2,.88,4.29,1.29,6,2.74a2.86,2.86,0,0,0,.93.62.81.81,0,0,0,1-.31,1.13,1.13,0,0,0,0-.81c-.3-1.16-.64-2.3-1-3.43a11.63,11.63,0,0,0-4.47-5.81A20.06,20.06,0,0,0,353.42,377.19Z"/><path class="cls-3" d="M340.59,361.51a22.61,22.61,0,0,0,.45,8.57,1,1,0,0,0,.35.59,1.05,1.05,0,0,0,.61.13c4.42,0,8.7-.82,13.09-1.08l7.28-.47a11.55,11.55,0,0,0,2.93-.45,5.71,5.71,0,0,0,3.58-3.8c.29-1-10.61-2-11.55-2.14-1.3-.21-16.8-.64-16.67-2.15C340.64,361,340.62,361.25,340.59,361.51Z"/><path class="cls-3" d="M353.27,352.45a20.14,20.14,0,0,1-3.35,1.4,8.73,8.73,0,0,0,3.9,3c1.47.63,2.88.11,4.19.54a3.07,3.07,0,0,0,1.13.15c5.23-.32,9.54-2.66,14.45-4.19a2.94,2.94,0,0,0-1.28-2.08,13.26,13.26,0,0,0-3.37-2.58c-1-.35-2.36.35-3.2-.06a2.52,2.52,0,0,0-2.63.29c-1.65,1.15-4.92.85-6.85,1.89C355.24,351.37,354.27,351.93,353.27,352.45Z"/><path class="cls-2" d="M357.34,341.88a18.07,18.07,0,0,1-2.68,1.78c3.3,4.07,9.92.49,14.12,0a25,25,0,0,0-2.07-4.11,4.53,4.53,0,0,0-3.86-1,8.69,8.69,0,0,0-3.94,2C358.39,341,357.87,341.46,357.34,341.88Z"/><path class="cls-2" d="M331.69,303.71c5.33-2.48,10.09-5.65,15.27-8.34.11-.05.23-.12.25-.24s-.07-.26-.16-.36c-2.42-2.53-4.14-3.51-7.55-3.06a17.17,17.17,0,0,0-10.19,5.18,3.65,3.65,0,0,0-1.12,2,12.51,12.51,0,0,0,1.35,5.42.35.35,0,0,0,.58.17Z"/><path class="cls-2" d="M338.54,279.31a31.41,31.41,0,0,0-15.08,9.39c-1.74,2-1.75,3.89.18,5.7,1.88-2.64,6.42-3.49,9.33-4.47A27.91,27.91,0,0,0,343,283.85a10.59,10.59,0,0,0,2.38-4.38c-1.46-.29-2.74-1-4.24-.76C340.28,278.87,339.41,279.07,338.54,279.31Z"/><path class="cls-3" d="M284,323.37a76,76,0,0,0-6.43-13.09c-1.74-2.66-3.93-3.82-6.5-5.35l-1.49-.87c-.36-.21-.81-.42-1.14-.17a58.49,58.49,0,0,0,3.68,10.17c.49,1,1.16,1.82,1.6,2.86.2.48.67,2.94,1,3.13a6.23,6.23,0,0,0-4.54-.56c3,4.66,6.82,8.62,10.12,13a39.59,39.59,0,0,0,6.58,7.38.55.55,0,0,0,.4.17c.23,0,.32-.3.36-.52a20.73,20.73,0,0,0-.27-8.59C286.69,328.09,285.08,326,284,323.37Z"/><path class="cls-2" d="M265.4,319.26c-.47-1-.95-2-1.43-3a14.55,14.55,0,0,0-1.7-3.6,13,13,0,0,1-1-2.28,16.65,16.65,0,0,0-.3-1.81,18.51,18.51,0,0,0-2.23-4.13c-.24-.37-.54-.77-1-.8a11.33,11.33,0,0,1-.69,4,5.81,5.81,0,0,0-.43,3.78,1.55,1.55,0,0,0,.5.91,1.51,1.51,0,0,0,.05.47,50.2,50.2,0,0,0,7.72,17c.23.32.6.67.95.5a.84.84,0,0,0,.34-.51A13.66,13.66,0,0,0,265.4,319.26Z"/><path class="cls-2" d="M268.15,295.37c0,.11,0,.22,0,.33a6.81,6.81,0,0,0,1.82,3.41,17.29,17.29,0,0,0,6.88,4.25c-.29-.11-1-3.15-1.18-3.6-.74-1.73-1.58-4.22-2.84-5.6-.48-.53-3.56-4.11-4.05-3.89s-.33.93-.26,1.46C268.72,292.94,268.14,294.16,268.15,295.37Z"/><path class="cls-3" d="M269.22,365.23c-2.06.58-6.08,1.06-8.08,1.9.18.7,3.28,1.82,4,2s1.41.28,2.07.54c1.65.65,2.79,1.6,4.66,1.51l5.39-.26a2.48,2.48,0,0,0,2.34-2.79,2.72,2.72,0,0,0-1.45-2.21,14.35,14.35,0,0,0-7.88-.95A10.39,10.39,0,0,0,269.22,365.23Z"/><path class="cls-3" d="M250.89,385.39a18.24,18.24,0,0,0,10.3-.42c3.14-.9,6-1.93,9.28-1.86,2.89.05,5.22.42,8-.72,2.08-.85,2.53-4.37-.15-4.82-.52-.09-1-.15-1.53-.2a2.63,2.63,0,0,0-2.95-1.62c-4.15.77-8.63.24-12.83.71a24.12,24.12,0,0,0-7.45,1.71,7.63,7.63,0,0,0-2.56,2c-1,1.15-2.3,2-3.4,3.12a1.69,1.69,0,0,0,1,1.21A15.52,15.52,0,0,0,250.89,385.39Z"/><path class="cls-2" d="M242.88,378.89l2.58-1.49,1.06-.61c.4-.22,1.8-.17,2.42-.43.93-.39,1.83-1,2.73-1.43.64-.33,1.4-1,1.08-1.62-.57-1.14-3.49-1.69-4.7-1.76a10.35,10.35,0,0,0-5.77,1.85c-.79.48-4.12,2.94-4.15,3.9C238.08,379.24,241.71,379.56,242.88,378.89Z"/><path class="cls-3" d="M253.78,400.64a14.7,14.7,0,0,0-5.86,4.16c-.21.26-.4.64-.19.9a.68.68,0,0,0,.38.21c4,1.12,8.69-1.57,12.6-2.29,2.88-.54,5.82-.28,8.74-.47,2.73-.17,5.23-1.77,7.36-3.4,1.64-1.25,2.28-4.08-.35-4.86a28,28,0,0,0-11.82-.95,38.48,38.48,0,0,0-5.3,1.14c-.34.1-4.21,2.06-3.72,2.37l1.71,1.07a4.68,4.68,0,0,1-2.66,1.76Z"/><path class="cls-3" d="M253.24,418.15c4.41.85,9.73-.12,14-.22a2.32,2.32,0,0,0,2.33-2.14,5.23,5.23,0,0,0,2.75-.74c2.75-1.66.08-5.89-2.68-4.23-.56.34-3.28-.43-4.06-.47a25,25,0,0,0-5,.29c-4.22.66-8.21,2.56-12.17,4.07a.55.55,0,0,0-.3.21.42.42,0,0,0,0,.31c.26.92,1.19,1.45,2,1.89A11.69,11.69,0,0,0,253.24,418.15Z"/><path class="cls-2" d="M238.39,420.83a5.7,5.7,0,0,0,2,1.38,35.41,35.41,0,0,0,6.77.32c-2.22-3.56-6.57-7.69-11.08-7.39-.25,0-.55.09-.62.33a.63.63,0,0,0,.11.47C236.5,417.7,237.14,419.51,238.39,420.83Z"/><path class="cls-2" d="M230.18,428.05l-1,.11c-.54,0-5.71,1.46-5.68,1.5,1.64,1.91,5.54,6.08,8.49,4.64.72-.35,5.52,2,6.54,2.23,2,.48,4,.56,6,1.07a.91.91,0,0,0,.76,0c.25-.18.24-.55.2-.86-.85-5.27-5.8-8.35-10.81-8.82A23.1,23.1,0,0,0,230.18,428.05Z"/><path class="cls-3" d="M249.5,432.52l-.23.1c-3.22,1.39,2.26,2.44,3.42,2.73a25,25,0,0,0,7.64.82c1.3-.08,2.59-.05,3.91-.12a18,18,0,0,1,8.43,1.59,4.07,4.07,0,0,0,2,.56L273,432.45a7.93,7.93,0,0,0-.71-1.81c-1-1.6-3-2.24-4.83-2.48a15.32,15.32,0,0,0-8.32,1.2C256,430.67,252.62,431.18,249.5,432.52Z"/><path class="cls-2" d="M232.69,442.09l-1.1.39c-1.26.43-2.54,1.2-3.78,1.73a1,1,0,0,0-.54.4.86.86,0,0,0,0,.57,3.22,3.22,0,0,0,2.11,2c1.72.6,3.74.64,5.53,1.12a23,23,0,0,0,6.17.83,1.75,1.75,0,0,0,1.17-.32,1.34,1.34,0,0,0,.24-1.33,5.07,5.07,0,0,0-2.89-3c-.62-.33-3.78-.83-4-1.22A2.53,2.53,0,0,0,232.69,442.09Z"/><path class="cls-3" d="M260.86,354.4c.84.23,1.68.14,2.54.45a68.56,68.56,0,0,0,8,2.35,38,38,0,0,1,8.1,3.22.64.64,0,0,0,.36.09.7.7,0,0,0,.41-.29l4.14-5a.75.75,0,0,0,.24-.6.78.78,0,0,0-.26-.34c-6.47-5.56-14.89-6.48-23.11-6a19.46,19.46,0,0,0-4.25,1.23c-.26.08-.56.21-.6.48a.74.74,0,0,0,.18.5,11.74,11.74,0,0,0,3.79,3.73A4.24,4.24,0,0,0,260.86,354.4Z"/><path class="cls-2" d="M263.7,336.83c-1.81.59-4.58,1.65-4.26,2.09,1.19,1.65,3.6,4.45,6,3.59l.37-.12h0l.38,0h.06l.25.12c.11.13.25.24.37.37,1.72,1.88,6.54,1.05,8.8,1.1,0,0-1.57-2.91-1.8-3.19a15.26,15.26,0,0,0-3.17-2.43c-1.65-1.15-3.46-2.2-5.55-2A12,12,0,0,0,263.7,336.83Zm2.61,5.61Zm-.05,0c-.07,0-.15-.05-.15-.07Z"/><path class="cls-2" d="M166.66,513.65c-3-1-6.06-2-9.11-2.84-4.48-1.25-8.78-2.23-13,.51a.7.7,0,0,0-.35.37.71.71,0,0,0,.15.54,26.13,26.13,0,0,0,10.55,9.43,57.85,57.85,0,0,0,13.53,4.63l-5.1,1.1c7,7,20,6.49,29.21,5.3,7.56-1,14.9-.66,22.44-2.48,6.93-1.67,13-4,18.24-9.1a11.71,11.71,0,0,0-4.92-.93l11.57-4.49c5.35-2.07,11.17-4.23,15.4-8.26,7.1-6.76,17.34-17.21,12.79-28a58.12,58.12,0,0,1-13,13.76c1.83-3.5,2.35-5.32-.1-9.62-.66-1.16-9.07,6.83-9.53,7.29a92.3,92.3,0,0,1-40.86,23.78c-5.44,1.57-12.16,4-17.83,3.63C179.87,517.89,173.24,515.79,166.66,513.65Z"/><path class="cls-4" d="M265,459.26c-9.66,15.79-18.29,28.23-33.64,39.11-14.31,10.14-31.21,15.71-48.81,15.14-17.76-.58-31.91-8.16-44.38-20.77-10.61-10.71-26.58-26.14-43.38-19S77.05,500.26,88,519.64c8.62,15.22,26.52,29.39,41.7,37.59,29.83,16.12,69.37,16.14,99.9,1.75,18.09-8.52,32.88-22.25,44.53-38.52,10.13-14.15,18.53-32.34,18.3-50.06,0-2.73-4.64-4.46-4.77-1.8-.79,15.4-8.17,31.41-16.72,44-9.89,14.57-23.12,27.6-38.43,36.23-29.27,16.5-66.69,16.9-96.94,1.91-14.94-7.4-29.45-18.5-38.48-32.69-5.08-8-9.35-19.53-6.21-29s14.9-10.07,22.65-6.46,13.62,10.58,19.63,16.62a71.57,71.57,0,0,0,17.69,13.29,76.34,76.34,0,0,0,42,7.74c33.43-3.18,65.33-29.06,76.76-60.5.6-1.65-1.91-2.38-2.74-1Z"/><path class="cls-3" d="M210.36,197.16c-.41-.65-.92-1.07-1.54-.88-1.25.38-1.6,2.58-1.76,3.65a12.85,12.85,0,0,0,.22,5.24c.36,1.36,2.41,5.88,4.27,4.26a4.59,4.59,0,0,0,1.19-4,29.82,29.82,0,0,0-1.22-5.35A12.47,12.47,0,0,0,210.36,197.16Z"/><path class="cls-3" d="M231.66,145.94a8.53,8.53,0,0,0,.55-1.59,1,1,0,0,0,0-.63c-.76-1.7-3.36-.76-4.39-.08a26.18,26.18,0,0,0-4.66,4.07,65.76,65.76,0,0,0-7.25,9.81,35.11,35.11,0,0,0-4.87,11.11c-.5,2.45-1,6.08.44,8.34,2.94,4.59,6.66-.76,7.47-3.72a89.16,89.16,0,0,1,5.41-14.94,64.73,64.73,0,0,1,3.9-7.07A44.06,44.06,0,0,0,231.66,145.94Z"/><path class="cls-3" d="M246.67,129.19a16.46,16.46,0,0,0-2.51.52,11.32,11.32,0,0,0-5.53,3.24A1.9,1.9,0,0,0,240,136.2a8.26,8.26,0,0,0,3.83-1.24,12.29,12.29,0,0,0,4.66-4.31C249.42,129.21,248.11,129,246.67,129.19Z"/><path class="cls-3" d="M297.1,110.82c-2.55.28-5,.66-7.37,1-1.86.31-16.43,3.94-12.43,8a5.87,5.87,0,0,0,3.39,1.32c2.48.25,4.91-.54,7.34-.86,4.13-.54,8.23-1.34,12.41-1.49a88.1,88.1,0,0,1,13.29.52c2.26.26,4.51.61,6.75,1,1.14.21,4.52,1.81,5.26.71a2.31,2.31,0,0,0,.14-1.86,8.13,8.13,0,0,0-3.49-4.26C315.34,110,305.83,109.86,297.1,110.82Z"/><path class="cls-3" d="M379.08,144.06a5.85,5.85,0,0,0,.27,1.06,19.66,19.66,0,0,0,4.43,6.68,4.74,4.74,0,0,0,3.23,1.7,2.21,2.21,0,0,0,2-2.56,18.56,18.56,0,0,0-4.69-7.43,7.94,7.94,0,0,0-3.15-2.27C379.09,140.72,378.82,142.54,379.08,144.06Z"/><path class="cls-3" d="M394.14,168.88c.32,1.75,3.29,3.21,3.5.69.17-2-2.73-4.11-3.48-1.4A1.68,1.68,0,0,0,394.14,168.88Z"/><path class="cls-1" d="M310.87,410.89c-1.35-.06-4.75-3.92-5.86-4.84l-6.38-5.27c-4.18-3.45-8.26-7.35-12.71-10.39C281.48,402.67,302.1,410.53,310.87,410.89Z"/><path class="cls-1" d="M324.89,395.78a.88.88,0,0,0-.41-.26c-4.84-1.85-9.83-3.54-15-3.77-3.64-.15-7.32.43-10.92-.17,1.9.32,4.76,3.12,6.76,3.92,2.69,1.07,5.53,1.86,8.28,2.79a8.78,8.78,0,0,0,6.31.24C320.67,398.28,325.3,396.4,324.89,395.78Z"/></g></svg>