<svg xmlns="http://www.w3.org/2000/svg" viewBox="0 0 85.42 97.86"><defs><style>.cls-1{fill:#fff;}</style></defs><title>Zeichenfläche 8 Kopie 3</title><g id="cat"><path class="cls-1" d="M76.71,71.4c-.11-1.36-.41-2.71-.59-4.07-.23-1.76,0-3.75-.76-5.23-.62-1.2-.23-2.32-.68-3.43a43.71,43.71,0,0,1-2.31-7.08c-.26-1.19-1.15-2.23-1.41-3.42-.37-1.64-2-1.72-2.93-2.9a7.06,7.06,0,0,1,.3-2.55c.76-1.5.44-3,.27-4.47a2.61,2.61,0,0,0-2-2.53,15,15,0,0,1-3.39-1.62,7.54,7.54,0,0,0,0-6.12c-.68-1.78-3.31-3.88-5.17-3.93-1.32,0-2.64,0-3.92,0C53.34,23,52.66,22,52,21S50,19.94,49.9,18.55c0-.23-.44-.65-.63-.62-1.8.24-2.47-1.28-3.39-2.25a6.88,6.88,0,0,0-5.31-2.19c-3.64-.09-6,1.61-7.61,4.63a9,9,0,0,0-1.21,6.24c-2-1.15-2.82.55-4.1,1-1.48.49-1.82,2.19-2.06,3.39s.55,2.52.89,3.81c0,0-.24.18-.39.15-1.92-.45-3.22.77-4.51,1.79S19.89,37.28,19.91,39c0,1.32,0,2.65,0,4-3.63,2.93-5.33,6.91-7,11.06a68.5,68.5,0,0,0-2.16,7.42c-1,3.72-3.13,7.22-2.63,11.3,0,.24-.26.5-.34.77-.77,2.54.29,6,2.6,6.61,1.81.51,3.27,1.58,5,2.17a66.44,66.44,0,0,0,8.32,2.29c1.87.14,3.88,0,5.57.71,1.32.53,2.58.21,3.79.55a13.13,13.13,0,0,0,4.08.59c1.64-.06,3.3.07,4.93,0s3,.34,4.49-.33,3.14-.07,4.58-.88A28.32,28.32,0,0,0,60.84,84c2.07-.52,4.19-.9,6.25-1.39,2.46-.58,4.84-1.68,7.33-2.39a3.07,3.07,0,0,0,1.64-1.66,10.15,10.15,0,0,0,.65-3.12A26.84,26.84,0,0,0,76.71,71.4ZM22.36,40.54a27.76,27.76,0,0,0,0-3.17l2.49-2.21c.72,0,1.84,0,3,0,1.79-.06,2.34-.89,1.66-2.46a7.81,7.81,0,0,1-.93-4.64c1.2-1.19,2.47-2,4.38-1.23.92.39,2.24-.95,1.74-1.68a4.41,4.41,0,0,1-.57-2.56,2.27,2.27,0,0,1,.79-2.17A5.58,5.58,0,0,0,36,18.73,4.89,4.89,0,0,1,43.4,17c.3.21.72.26,1,.45a5.37,5.37,0,0,1,.69.67c-1,1.19-2,2.42-3,3.57a4.42,4.42,0,0,0-1.23,3.82,5.71,5.71,0,0,1-.08,1.06c-.83,0-1.63,0-2.43,0-3.18-.06-5.1,1.83-6.44,4.38-.94,1.77-.4,2.57,1.77,3a5.52,5.52,0,0,0,.82-1.4c.36-1.56,1.69-2.05,2.82-2.79s2.4-.29,3.61.19c1.67.67,2.52,0,2.41-1.75,0-.2.09-.48,0-.6a2.5,2.5,0,0,1-.42-2.77c.52-1.14.68-2.49,1.93-3.22a8.78,8.78,0,0,0,1.3-1.27c.94,1.56,3,1.25,4.14,2.85a7.55,7.55,0,0,1,1.06,5.12h2.27c.58-.59,1.17-1.17,1.75-1.75,3,0,3.06,0,5.31,2.15-.27,2.32.61,4.8-.88,7L58.66,35c-.22.27-.42.4-.44.56-.17,1.26.16,2.5-.57,3.79a3.13,3.13,0,0,1-3.31,2c-.92-.07-1.85,0-2.77,0-2.56,0-2.56,0-2.58-3.05,2.85.12,5.31-.7,6.73-3.45l-1.41-1.4c-.92.62-1.8,1.24-2.7,1.83a2.83,2.83,0,0,1-3.8-.26c-.88-.79-1.73-.72-2.27.21a4.44,4.44,0,0,1-4.89,2.38c-1.07-.72-1.76-2.06-3.56-2.88.34,1.65-.43,2.83.74,3.87a6.05,6.05,0,0,0,3.69,1.57c1.79.18,3.15-.81,4.77-1.42.08.47.14.75.17,1,.1.87-.27,1.78.62,2.54a5.06,5.06,0,0,0,3.4,1.51c1.34,0,2.68,0,4,0a5,5,0,0,0,4.38-2.46A5.19,5.19,0,0,0,60,37.11c2.16-.23,4-.24,5.63,1.4.59.61.93,1.46.54,1.86-.81.84-.51,1.72-.53,2.59A4,4,0,0,1,64,46.28a47.48,47.48,0,0,1-4.68,2.85,2.6,2.6,0,0,1-1.44.22c-2.18-.2-4.41.52-6.56-.55a2.15,2.15,0,0,0-2.2.59c-1.61,1.32-3.55,2.4-5.68,1.77s-4.3-1.2-5.87-2.95c-.61-.67-1.24-1.34-1.75-1.89C33.36,48,30.79,49.1,28,48.67c-2-.31-3.37-1.93-4.4-3.69A6.93,6.93,0,0,1,22.36,40.54Zm-1.24,5.55C25,52,28.55,52.6,34.94,49.26c2.12,2.23,4.42,4.36,7.87,4.45,3.14.09,6.2.07,8.34-2.54,4.91,1.22,10,1.61,15-3.82L68,49c-2.5,3.66-6.57,4.52-10.25,5.9a19.42,19.42,0,0,1-5.89.67c-2.57.1-5.15.1-7.72,0-1.67-.07-3.32-.47-5-.57s-3.37.3-4.92-.1a27,27,0,0,1-7-2.38c-2.7-1.54-5.67-2.64-7.6-4.9Zm52.5,29.34a2.45,2.45,0,0,1-2.14,2.51c-3,.79-5.77,2.06-8.9,2.37a15.56,15.56,0,0,0-4.37,1.31c-1.71.73-3.64-.19-5.11,1.1-6.39.28-12.81,1.2-19.18.5a59.16,59.16,0,0,1-9.78-1.6c-2-.57-4.2-.68-6.24-1.36-.09,0-.22,0-.31,0-.34-.17-.67-.36-1-.55-1.51-.81-3.08-1.49-4.64-2.21-.52-.24-.88-.84-1.16-1.12-.63-3.32.57-6.15,1.34-9.12s2.21-5.56,2.3-8.65a13.05,13.05,0,0,1,1.28-4.08c.6-1.5,1.32-3,2-4.44,3.9,3.52,8.74,5.36,13.56,7.22a3.24,3.24,0,0,0,.89.1c2.08.2,4.15.49,6.23.59s4.32.08,6.48,0c1.91-.06,3.67,1,5.61.63,3-.63,6.16-.69,9.19-1.63a29.47,29.47,0,0,0,5.94-2.08c1.19-.67,2.31-1.45,3.58-2.25.84,2.88,2.31,5.76,2.64,9a22.76,22.76,0,0,0,.59,2.22c.16.75-.33,1.64.46,2.28.07.06.17.17.16.24C72.56,69.48,73.93,72.41,73.62,75.43Z"/><path class="cls-1" d="M63.27,71c-.09,0-.23,0-.31,0l-4.08-2.13,3.07-4c-.05-1-.1-2.05-.15-3-5.33-.74-9.71.86-13.65,4.5-2.54-3-5.93-2.93-9.34-2.78a7.21,7.21,0,0,1-.93,0c-3-.21-5.41,1.19-7.88,2.55-2.09,1.15-3.47,3-5.16,4.54a5.59,5.59,0,0,0,3.23,4.65,11.06,11.06,0,0,1,1.75,1c3.53,2.87,7.62,2.28,11.65,1.82a16.45,16.45,0,0,0,6.08-2.42,2.57,2.57,0,0,1,2.27-.31c1.69,1.12,3.71.66,5.34,1.29,2.58,1,4.85.17,7.24-.14.89-.12,2.68-2,2.57-2.66A3.47,3.47,0,0,0,63.27,71Zm-2.42,3.72a27.74,27.74,0,0,1-11.38-1.62,1.55,1.55,0,0,0-1,0c-1.7.62-3.36,1.32-5.06,1.93a5.68,5.68,0,0,1-1.73.31c-1.44,0-2.88,0-4.32,0s-3,.33-4.22-.23a35.19,35.19,0,0,1-5.19-3.67c.24-1.87,1.84-2.18,2.9-2.93A11.27,11.27,0,0,1,38.13,66a7.21,7.21,0,0,0,1.54,0c2.95-.44,5.39.85,7.61,2.46.88.63,1.66.57,3,.67-.64-2.21.53-3.21,2.16-3.72,2.45-.76,4.75-2.2,7.77-1.81-1.33,3.1-4.18,4.22-6.76,6.09.79.54,1.33,1.24,1.83,1.2,2.69-.18,4.88,1.11,7.25,2.19C62.48,74.17,62,74.67,60.85,74.71Z"/></g></svg>