<svg xmlns="http://www.w3.org/2000/svg" viewBox="0 0 85.42 97.86"><defs><style>.cls-1{fill:#fff;}</style></defs><title>Zeichenfläche 8</title><g id="cat"><path class="cls-1" d="M74,74.67c.25-2.75-.5-5.41-.61-8.13a17.18,17.18,0,0,0-.63-5.4c-.45-1.17,0-2.41-.5-3.27s-.32-1.69-.47-2.52a13.42,13.42,0,0,1-.5-2.74c.13-2.48-1-4.85-.58-7.33a.83.83,0,0,0-.08-.51c-.92-1.69-.62-3.85-2.07-5.34a12.12,12.12,0,0,0-4.2-6.89,17.61,17.61,0,0,1-2.27-2.3A4,4,0,0,1,61,28c.26-4.18-.68-8.29-.6-12.45q0-1.22,0-2.43c0-.86-.06-1.71-.09-2.59a32.55,32.55,0,0,1-3.49.54c-.54,0-1.11-.48-1.66-.48-3,0-5.92-.79-8.95-.63-1.6.08-3.22-.68-4.89-.47C40.29,8.5,39,9.14,37.8,9a33.57,33.57,0,0,0-3.56-.52c-2.06-.08-4.13,0-6.2,0a2.53,2.53,0,0,0-.69.28c-.15.47-.34,1.11-.56,1.78l-1.23.15a4.59,4.59,0,0,0-.76,3.2,5.3,5.3,0,0,1-.05,2.39c-1.11,2.18-.23,4.09.47,6.07-.29.11-.84.22-.86.37-.13,1.29-1,2.37-1.12,3.58-.25,2.5-1.46,4.64-2.41,6.83-1,2.36-2.93,4.3-3.58,6.88-2.18,2.45-3.1,5.56-4.1,8.54a28.7,28.7,0,0,0-1.89,9.76c.06,2.88.42,5.79-.41,8.69-.41,1.41-.1,3-.06,4.57s-.78,2.81-.6,4.36A44,44,0,0,1,10.24,81l1.23,1.2c4.15.23,8.21.43,12.26.69a29.22,29.22,0,0,1,5.95.62A20.11,20.11,0,0,0,33,84a18.82,18.82,0,0,0,3.28.48,30.71,30.71,0,0,1,6,.6c.74.1,1.46.38,2.2.52a7,7,0,0,1,2.26.44c.85.44,2.1.1,3.18.11.82-1.3,2.38-1.2,3.55-1.86,2.53-1.44,5.16-2.71,7.76-4,.44-.23.95-.62,1.37-.55,1.88.33,3.59-.69,5.44-.59,1.34.07,2.69,0,3.81,0l2.78-2.55A5.06,5.06,0,0,1,74,74.67ZM34.76,11.21c1.46.23,2.91.33,4.37.47a30.24,30.24,0,0,1,4.34.62c2.12.54,4.2.25,6.28.45,1.42.14,2.83.44,4.49.71-.63.87-.72,2-2,1.07a.73.73,0,0,0-.46-.17c-2.49.38-4.87-.78-7.33-.52-1.27.14-2.36-.42-3.55-.56s-2.47.37-3.57-.53c-.16-.13-.53,0-.8,0-2.8-.17-5.6-.34-8.4-.56-.25,0-.47-.46-1.05-1.05A53.72,53.72,0,0,1,34.76,11.21ZM27,21.11c.1-2.17-.29-4.39.75-6.69.82.07,1.84-.5,2.76.43.09.1.34,0,.51,0,2.18.18,4.35.33,6.52.56,1,.1,2,.37,3,.52s2.08-.28,3.05.5c.32.26,1,.11,1.58,0,2.4-.34,4.69.54,7.06.58a1.18,1.18,0,0,1,1.21,1.39c-.17,1.9.44,3.87-.51,5.73-.18.34,0,.86,0,1.58-1.6-.41-3.19.52-4.65-.61-.17-.13-.53,0-.8,0-2.35-.18-4.71-.33-7.06-.56a24.13,24.13,0,0,1-2.47-.52c-.91-.19-1.83-.38-2.75-.54s-1.8.36-2.48-.51C31,23,29.26,23,27.56,23a8.88,8.88,0,0,1-1.9-.56ZM47.4,43.63A4.65,4.65,0,0,0,47,46.12c.23,1.22-.47,2.19-.6,3.29s.49,2.14-.5,3c-.17.17,0,.69,0,1,0,.9,0,1.81,0,2.7.38,5.79-.71,11.52-.57,17.3.06,2.73,1,5.39.57,8.14a9.66,9.66,0,0,0,0,1.23c-1.4-.18-2.93,0-4-.62s-2.41.07-3.28-.53c-1-.73-2.06-.39-3.07-.41a24.78,24.78,0,0,1-7.37-1.1,1.63,1.63,0,0,0-.54,0c-4.07,0-8.1-.91-12.18-.55-.61.06-1.22,0-1.93,0,0-3.83-.4-7.55.1-11.15.55-3.91.13-7.79.48-11.65A38.36,38.36,0,0,1,15.83,49c1.24-4,3.31-7.63,5.19-11.33a33,33,0,0,1,1.74-3c1.57-2.36,1.8-5.2,3.1-7.64.22-.41,0-1,0-2l3.75.75c1.18.24,2.34-.18,3.61.43,1,.49,2.51.19,3.78.61a16,16,0,0,0,3.54.56c1.11.1,2.27-.15,3.28.55a.48.48,0,0,0,.27,0c2.57-.41,5,.95,7.65.45a6.33,6.33,0,0,1-1.07,3.75,28.68,28.68,0,0,0-2.11,6.13C48.07,40,48,41.9,47.4,43.63Zm21.07,32.8a7.47,7.47,0,0,0-3,.46c-1.41.64-2.26-.2-2.29-1.85s-.07-3.06,0-4.58a5.33,5.33,0,0,0-.8-3.18c-1.63.18-2,.35-1.89,1.47.14,1.81-.43,3.64.44,5.47.41.87.07,2.09.07,3.23C58.45,78.75,56,80,53.56,81.27c-.89.45-1.81.82-2.72,1.24-1.56.71-2.38.29-2.25-1.41.28-3.65-1-7.24-.51-10.82.71-5,.34-9.92.47-14.88,0-1.12.78-2.07.59-3.28a8.56,8.56,0,0,1,.4-3.3c.31-1.3.38-2.71.57-4.07C50.52,42,51.82,39.43,52,36.6a7.72,7.72,0,0,1,1.1-2.76,27.31,27.31,0,0,0,2.6-8.39c.38-2.29.25-4.54.41-6.8a5.46,5.46,0,0,1,0-.81,9.76,9.76,0,0,0,.49-1.93,6,6,0,0,0-.49-1.67c0-.06,0-.15.1-.33h1.3s.2.18.2.32c0,4.14.08,8.27,0,12.4a8.51,8.51,0,0,0,2.42,6c1.12,1.28,2.42,2.4,3.59,3.64A6.74,6.74,0,0,1,65,38.16c.83,2,1.6,4,2.29,6.05.4,1.21,0,2.53.58,3.81.4.9,0,2.13.1,3.2s.42,2,.5,3a8.86,8.86,0,0,0,.52,3c.36.83,0,1.77.47,2.76.6,1.36.45,3,.65,4.58.15,1.1.38,2.19.53,3.29a8.67,8.67,0,0,0,.46,3c.42.87,0,2.11.1,3.19,0,.72.2,1.44.32,2.29C70.59,76.42,69.52,76.38,68.47,76.43Z"/><path class="cls-1" d="M33,58.41c-1.33-.6-2.55-.13-3.46-.3a10.5,10.5,0,0,0-4.73,10c1.17.68,1.76,2.05,3.46,2.51a18.09,18.09,0,0,0,5.21.29,3,3,0,0,0,2.16-1.52,7.8,7.8,0,0,0,.91-6C36.11,61.42,35.24,59.4,33,58.41Z"/><path class="cls-1" d="M35,48.92,33,51c-.35.75.17,1.6-.48,2.47s.4,1.65.75,2.46c.51-.39.92,1.08,1.46.08,2.16-.23,1.62-2.33,2.43-3.5C36.34,51.33,37.05,49.24,35,48.92Z"/><path class="cls-1" d="M41.72,58a2,2,0,0,0-2.5-1,2.87,2.87,0,0,0-2,2,11.34,11.34,0,0,0,0,2.57,10.32,10.32,0,0,0,1,1,1.9,1.9,0,0,0,2.35,0,4,4,0,0,0,1.49-3.64A2.81,2.81,0,0,0,41.72,58Z"/><path class="cls-1" d="M24.81,57.24c-2.81-2-3-1.71-4.54.73-.75,1.21-.07,2.12.29,3.09.22.58,1.91.93,2.5.63a2.54,2.54,0,0,0,1.75-2.41C24.79,58.58,24.81,57.88,24.81,57.24Z"/><path class="cls-1" d="M28.1,54.91l2.1-1.33V50.23a9.52,9.52,0,0,0-1-.94,1.83,1.83,0,0,0-2.82.57,3.8,3.8,0,0,0-.47,3A3.24,3.24,0,0,0,28.1,54.91Z"/></g></svg>