<svg xmlns="http://www.w3.org/2000/svg" viewBox="0 0 85.42 97.86"><defs><style>.cls-1{fill:#fff;}</style></defs><title>Zeichenfläche 8 Kopie 2</title><g id="cat"><path class="cls-1" d="M81,37.8a26.66,26.66,0,0,0-2.39-3.62,16.63,16.63,0,0,0-2.7-2.67c-1-.82-2.25-1.43-3.35-2.19-2.27-1.59-7.77-3.63-9.92-3.49-1,.07-1.93.6-2.91.65a10.84,10.84,0,0,0-8,3.83c-1.16,1.32-2.48,2.5-3.65,3.67,0,3.19.34,3.74,2.34,4.47s3-.36,4.17-1.88c-.13-1.3-.28-2.73-.44-4.37,2.51-2.36,6.67-3.36,10.33-2.92a14.94,14.94,0,0,1,6.66,2.87,5.7,5.7,0,0,0,1.11.75c2.9,1,4.38,3.38,5.7,5.9a9,9,0,0,1,1.37,3c.46,6-.55,11.68-4.18,16.75-1.78,2.49-4.19,3.83-7.17,5.23.36-3.52-1-6.3-2.19-9-1.35-3-4.06-5-6.38-7.31a3,3,0,0,0-1.7-1c-2.29-.05-4.33-1.07-6.52-1.48a41.25,41.25,0,0,0-4.68-.69c-1.65-.12-3.33.09-5-.06a12.84,12.84,0,0,0-5.3,1c-.69.23-1,.54-1.77.07a8.24,8.24,0,0,0-7.19-.52c-1.26.43-2.68.69-3.87-.58a2.85,2.85,0,0,0-1.85-.59c-1.9-.08-3.8,0-5.69,0A5,5,0,0,0,12.13,45a9.29,9.29,0,0,0-2.66,9.48,4.58,4.58,0,0,1-.26,3.29,34.52,34.52,0,0,0-4,7.6A24.11,24.11,0,0,0,3.26,75.93a3.5,3.5,0,0,0,2.1,2.48c1.91.28,3.83.58,5.75.7a35.9,35.9,0,0,0,5.68,0,9.84,9.84,0,0,1,5.32.91c1.44.72,2.59.42,3.9.44v-2H40.45c.71,0,1.64.29,2.09-.06,1.39-1.08,3-.26,4.35-.71a11.33,11.33,0,0,1,4.7-.64,18.84,18.84,0,0,0,8.28-1.49c2.17-.8,4.53-1.42,5.9-3.72a12,12,0,0,0,1.48-4c.33-1.83.5-2,2.37-2.18a4.08,4.08,0,0,0,1.94-.43c3.91-2.81,7.57-5.8,8.82-10.85C81,52,82,49.71,82.16,47.26c.13-2-.08-4,.07-6A5.83,5.83,0,0,0,81,37.8ZM23.16,48.57a3.76,3.76,0,0,1,1.47-.7c2.47-.35,4.95-.61,7.56-.92.59,1.1,1.41,2,1.57,3a8.77,8.77,0,0,1-.23,4.11A11.79,11.79,0,0,1,28.85,60c0-1.33,0-2.48,0-3.62a4.92,4.92,0,0,0-3.55-4.95,14.75,14.75,0,0,1-1.84-.7c-1.24-.59-2,.62-3.24,1.75C20.56,50.22,21.87,49.39,23.16,48.57ZM11.88,51.22c.52-1.79,1.22-3.69,3.19-4.71H21a14.73,14.73,0,0,0-2.09,1.92c-.59.77-1.38,1.74-1.34,2.58.09,1.93-1.33,2-2.45,2.53-.79.38-1.57.79-2.66,1.34C12.24,53.58,11.58,52.26,11.88,51.22ZM60.42,72.14A21.57,21.57,0,0,1,56,73.52c-2.52.59-5.07.33-7.53.76a39.85,39.85,0,0,0-5,.69,17.26,17.26,0,0,1-5.07.61c-1.66,0-3.32,0-5,0H28.06c-.12,0-.23,0-.35,0-1.7.1-3.26,1-5.05.73s-2.81-1.84-4.18-2.81c-.48-.33-1.38,0-2.36,0-.05,1.07-.1,1.86-.14,2.64l-4.19.61a3.55,3.55,0,0,1,0-1.12c.25-.84,1.22-1.65.6-2.5a5.56,5.56,0,0,0-3.57-2.46,18.07,18.07,0,0,0-2.52,0C8.05,67,9.5,63.8,11.1,60.69c1.13-2.21,3.25-3.27,5.41-4.35a19.78,19.78,0,0,1,6.73-1.72c.88-.11,1.88.71,2.85,1.11-.31,2,.37,3.88-.74,5.64-.45.72.45,2,1.27,2.1,1.36.1,2.8.2,4-.7a18.66,18.66,0,0,0,6.79-11c.15-.68.31-1.74,0-2.07-1.08-1-.1-1.53.42-1.78,2.14-1,6.9-1,9.77-.23.21.06.44.2.63.16,2.74-.57,5,1.37,7.59,1.48.48,0,1,.51,1.39.88,1,1,2,2,3,3,2.75,2.74,2.76,2.74,4,6.16A5.25,5.25,0,0,1,64.4,61c0,1.66,0,3.32,0,5C64.52,69,63,70.89,60.42,72.14Z"/><path class="cls-1" d="M28.72,69.87c-3.44.32-6.89.5-10.34.73-.78.05-1.56.08-2.38.11.09,1.35.72,1.9,1.74,2,2.49.3,10.56-.09,12.8-.74a9.19,9.19,0,0,0,2.14-1.4C31,69.55,31,69.66,28.72,69.87Z"/><path class="cls-1" d="M18.19,63.39v-1.1a6.4,6.4,0,0,0-2-.63A3.76,3.76,0,0,0,14,62.4a3.54,3.54,0,0,0-.8,1.76,1.9,1.9,0,0,0,1.26,2.18C17.08,67,18.13,66.15,18.19,63.39Z"/></g></svg>