<svg xmlns="http://www.w3.org/2000/svg" viewBox="0 0 85.42 97.86"><defs><style>.cls-1{fill:#fff;}</style></defs><title>Zeichenfläche 8 Kopie</title><g id="cat"><path class="cls-1" d="M82.86,54.77A9.94,9.94,0,0,0,79.1,48.7a23.6,23.6,0,0,0-7.37-3.59,20.54,20.54,0,0,1-4-1.08,9.8,9.8,0,0,0-2.25-.49v-4.3c0-.41.14-.89,0-1.22-.83-1.69-.79-3.58-1.35-5.35-.93-2.93-2.06-5.72-4.57-7.43-1.68-1.15-3.18-2.52-4.92-3.56-.84-.5-1.8-.8-2.68-1.25a7.21,7.21,0,0,0-3-.51c-1.08-.06-2.16-.35-3.25-.46-1.77-.18-3.33.66-4.88,1.29-4.4,1.8-7.59,5.11-10.31,8.87a13.25,13.25,0,0,0-2,4.1c-.63,2.3-.81,4.71-1.45,7a8.58,8.58,0,0,0,0,4.87,26,26,0,0,0,2.13,4.55,28.08,28.08,0,0,0,4.25,5.13,12.58,12.58,0,0,0,4.23,2.89,33.58,33.58,0,0,0,7.44,1.67c2.89.49,5.47-.85,8.11-1.8,2.13-.77,3.86-2.2,5.75-3.36A4.06,4.06,0,0,0,61,52.6a3.6,3.6,0,0,1,1.44-2.13,10.61,10.61,0,0,0,2.09-3.34,13.38,13.38,0,0,0,.7-2.08c2.08.62,3.91,1.41,5.76,2.1,2.94,1.09,6,2.06,8.09,4.8a6.74,6.74,0,0,1,1.77,4.7,16.26,16.26,0,0,0,0,3,2.21,2.21,0,0,1-.54,1.75,25.24,25.24,0,0,1-3.06,3c-2.06,1.6-4.68,1.39-7.06,2-7.91-.33-15.88.77-23.76-.94-2.37-.51-4.83-.57-7.24-1a59.33,59.33,0,0,0-7.43-.53c-2-.08-3.94,0-5.92,0-1.23,0-2.59-.33-3.66.08s-2.42.48-3.6.82a54.83,54.83,0,0,0-8.87,3,5.49,5.49,0,0,0-3.38,5.37c0,1,0,2,0,2.9,1,.64,1.69,1.54,2.65,2.2,2,1.36,4.26,1.46,6.4,1.8,2.56.41,5.24.07,7.87.12.68,0,1.22-.43,1.77-.47a37.31,37.31,0,0,0,8.3-2A23.12,23.12,0,0,0,42.78,72a5,5,0,0,0,1.61-4.6c1.49.13,3.09-.06,4.41.47s2.36.23,3.53.4a19.9,19.9,0,0,0,3.49.47c4.37-.17,8.76.49,13.12-.42,1.53-.32,3.14-.17,4.74-.46a12.53,12.53,0,0,0,8.57-5.32,3.77,3.77,0,0,0,.49-1.28A15.5,15.5,0,0,0,82.86,54.77ZM61.39,32c-2.14,3-5.48,5-7.93,7.95s-4.94,5.66-7.34,9C45.48,47,45,45.39,44.43,43.78a8.67,8.67,0,0,0,3.46-3.15c.83-1.09,1.77-2.05,2.68-3,1.84-2,3.65-4.08,5.57-6,1-1.05,2.26-1.93,3.35-2.85C60.91,29.49,60.83,30.91,61.39,32Zm-11,3.23a81.54,81.54,0,0,0-6.27,7.33c-.62-1.49-1.06-2.53-1.49-3.55a14.79,14.79,0,0,0,4.14-3.82,57.76,57.76,0,0,1,5.1-5.28c.5-.47,1.53-.34,2.11-.77s1.08-.22,1.6-.35a6.46,6.46,0,0,1,1.47-.35C54.24,30.19,52.68,33.08,50.39,35.25Zm-7.93,2.51L40.9,33.34l6.57-2.2.22.34ZM43,22.63a9.65,9.65,0,0,1,5.1-.69c1.28.24,2.52.62,3.77,1,.17,0,.27.3.48.55-.61.89-1.88-.09-2.33.89-2.1-.1-3.79,1.14-5.66,1.78-1.22.41-2.48.69-3.71,1.09-1.59.53-3.09,1.25-4.67,1.78a11.67,11.67,0,0,1-1.45.31l-.17-.59A21.38,21.38,0,0,1,43,22.63Zm-9.8,9.26c1.65-.26,2.81-1.67,4.51-1.63,4.22-2.16,8.94-3,13.27-4.82.66-.29,1.48-.25,2.24-.51,1.53-.5,2.54.57,3.83,1.77a40.84,40.84,0,0,0-9,2.15c-2.91.87-5.78,1.9-8.62,2.95S33.85,34,31.17,35C31.18,33.29,31.65,32.13,33.15,31.89ZM33.64,52a20,20,0,0,1-1.41-1.88A18.93,18.93,0,0,1,31,48.14a10.83,10.83,0,0,1-1-2.3c-.19-.74-.7-1.4-.53-2.26s.12-1.58.22-2.37.27-1.54.54-3c.52,1.35.9,2.25,1.22,3.17.85,2.47,1.4,5,2,7.55a19.88,19.88,0,0,0,1.77,3.7,8.17,8.17,0,0,1,.29,1A7.7,7.7,0,0,1,33.64,52Zm4.65,3.18c-1-2.45-2.19-4.81-3-7.35a44.73,44.73,0,0,1-1.22-4.38c-.52-2.39-1.55-4.61-2.11-7l2.74-.8c1.44,7.11,4.24,13.72,6.16,20.61C39.38,56.4,38.71,56.16,38.29,55.14Zm8.42,2.18a29.47,29.47,0,0,1-3.58.14c-.64-2.12-1.3-4.08-1.8-6.08-1-3.85-2.48-7.53-3.46-11.38a18.32,18.32,0,0,1-1-4.51c0-.17-.3-.34-.55-.62l2.77-.79c.45,1.71.82,3.27,1.27,4.81s1,3,1.46,4.57,1,3.21,1.58,4.77a35.22,35.22,0,0,0,1.71,4.46C45.81,54.07,47,55.38,46.71,57.32Zm.44-5.63c-.59-1.31-.65-1.7.44-2.07.89-.3.9-1,1.32-1.48,4-4.71,8.49-9,12.86-13.35.08-.09.31,0,.55,0l.57,1.87c-.94.94-2,2-3.09,3.08A72.12,72.12,0,0,0,49,52.92c-.19.3-.59.47-1,.78C47.68,52.92,47.43,52.3,47.15,51.69ZM60.83,50.1C59.56,51.26,56.51,54.16,55,55c0,0-.14,0-.37-.15l8.08-9.76C62.5,46.93,62.37,48.7,60.83,50.1Zm1-6.47a52.22,52.22,0,0,0-5.47,6.31A57.51,57.51,0,0,0,52,55.8c-.65,1.06-1.88,1.34-3.3,1.05V55.24c.47-.31,1.08-.5,1.34-.92,1.35-2.13,3.53-3.62,4.58-6a2.53,2.53,0,0,1,.5-.54c1.85-2,3.73-4,5.56-6.07.88-1,1.66-2.06,2.65-3.29A4.94,4.94,0,0,1,61.82,43.63ZM42,69.73a20.4,20.4,0,0,1-7.25,5.07c-2.13.87-4.33,1.44-6.45,2.27-.87.34-1.8.15-2.75.51a14.43,14.43,0,0,1-4.44.56,17.78,17.78,0,0,1-4.67,0c-1.75-.38-3.55-.43-5.27-.94a6.36,6.36,0,0,1-3.05-2.38,19.88,19.88,0,0,1,.35-3c.47-1.81,2.25-2.3,3.65-2.93a67.54,67.54,0,0,1,7.62-2.42c.66-.21,1.44,0,2.13-.22,2.18-.54,9.69-.47,12.22.05a25.83,25.83,0,0,0,3.18.08,10.44,10.44,0,0,1,1.82.52c-2.11.73-3.9,1.24-5.6,2a16,16,0,0,0-2.7,1.82c-.66.48-.46,1.24-.32,1.8a1.21,1.21,0,0,0,1.34.81c1.5-.1,3,.19,4.46-.53a11.1,11.1,0,0,0,1.47-1.15,5.29,5.29,0,0,0-4.25.26c.94-1.37,1.69-1.86,4.11-2.54,1.43-.4,2.89-.7,4.61-1.11C42.18,68.8,42.3,69.45,42,69.73Z"/></g></svg>